<?xml version="1.0" encoding="UTF-8" standalone="no"?>
<!-- Created with Inkscape (http://www.inkscape.org/) -->

<svg
   width="250mm"
   height="250mm"
   viewBox="0 0 250 250"
   version="1.1"
   id="svg5"
   xml:space="preserve"
   inkscape:version="1.2.2 (b0a8486541, 2022-12-01)"
   sodipodi:docname="logo-light.svg"
   xmlns:inkscape="http://www.inkscape.org/namespaces/inkscape"
   xmlns:sodipodi="http://sodipodi.sourceforge.net/DTD/sodipodi-0.dtd"
   xmlns:xlink="http://www.w3.org/1999/xlink"
   xmlns="http://www.w3.org/2000/svg"
   xmlns:svg="http://www.w3.org/2000/svg"><sodipodi:namedview
     id="namedview7"
     pagecolor="#505050"
     bordercolor="#eeeeee"
     borderopacity="1"
     inkscape:showpageshadow="0"
     inkscape:pageopacity="0"
     inkscape:pagecheckerboard="0"
     inkscape:deskcolor="#505050"
     inkscape:document-units="mm"
     showgrid="false"
     inkscape:zoom="0.5"
     inkscape:cx="48"
     inkscape:cy="225"
     inkscape:window-width="1920"
     inkscape:window-height="1043"
     inkscape:window-x="0"
     inkscape:window-y="0"
     inkscape:window-maximized="1"
     inkscape:current-layer="layer1" /><defs
     id="defs2"><linearGradient
       inkscape:collect="always"
       id="linearGradient4221"><stop
         style="stop-color:#ffffff;stop-opacity:1;"
         offset="0"
         id="stop4217" /><stop
         style="stop-color:#f74b00;stop-opacity:1"
         offset="1"
         id="stop4219" /></linearGradient><linearGradient
       inkscape:collect="always"
       id="linearGradient4215"><stop
         style="stop-color:#ffffff;stop-opacity:1;"
         offset="0"
         id="stop4211" /><stop
         style="stop-color:#f74b00;stop-opacity:1"
         offset="1"
         id="stop4213" /></linearGradient><linearGradient
       inkscape:collect="always"
       id="linearGradient8222"><stop
         style="stop-color:#ffffff;stop-opacity:1;"
         offset="0"
         id="stop8218" /><stop
         style="stop-color:#f74b00;stop-opacity:1"
         offset="1"
         id="stop8220" /></linearGradient><linearGradient
       inkscape:collect="always"
       xlink:href="#linearGradient4215"
       id="linearGradient8200"
       x1="569.55701"
       y1="575.69153"
       x2="884.96222"
       y2="832.95288"
       gradientUnits="userSpaceOnUse"
       gradientTransform="matrix(0.02053546,0,0,0.02053546,42.449612,103.64003)" /><linearGradient
       inkscape:collect="always"
       xlink:href="#linearGradient8222"
       id="linearGradient3650"
       gradientUnits="userSpaceOnUse"
       x1="569.55701"
       y1="575.69153"
       x2="884.96222"
       y2="832.95288"
       gradientTransform="matrix(0.02053546,0,0,0.02053546,42.449612,103.64003)" /><linearGradient
       inkscape:collect="always"
       xlink:href="#linearGradient4221"
       id="linearGradient3652"
       gradientUnits="userSpaceOnUse"
       x1="569.55701"
       y1="575.69153"
       x2="884.96222"
       y2="832.95288"
       gradientTransform="matrix(0.02053546,0,0,0.02053546,42.449612,103.64003)" /></defs><g
     inkscape:label="Layer 1"
     inkscape:groupmode="layer"
     id="layer1"><text
       xml:space="preserve"
       style="font-weight:bold;font-size:3.175px;font-family:'League Spartan';-inkscape-font-specification:'League Spartan Bold';text-align:center;text-anchor:middle;fill:#000000;stroke:#ff0000;stroke-width:0;stroke-linecap:round;stroke-linejoin:round;stroke-miterlimit:36.2;stroke-dasharray:none"
       x="22.499735"
       y="44.035686"
       id="text1570"><tspan
         sodipodi:role="line"
         id="tspan1568"
         style="stroke-width:0"
         x="22.499735"
         y="44.035686" /></text><path
       id="rect2992"
       style="fill:#1e2a34;stroke:#ff0000;stroke-width:0;stroke-linecap:round;stroke-linejoin:round;stroke-miterlimit:36.2;stroke-dasharray:none;fill-opacity:1"
       d="m 14.451421,86.99903 a 39.856274,39.856274 0 0 0 -6.1929266,54.47291 c -0.00985,0.008 -0.015709,0.0136 -0.026552,0.0225 l 0.5979749,0.71198 a 39.856274,39.856274 0 0 0 0.7365931,0.94534 39.856274,39.856274 0 0 0 0.8043726,0.88838 L 86.531248,234.716 a 39.856274,39.856274 0 0 0 0.586947,0.75398 39.856274,39.856274 0 0 0 55.166655,5.65283 c 0.0116,0.009 0.0276,0.0188 0.0395,0.0265 l 0.92371,-0.77584 a 39.856274,39.856274 0 0 0 0.0233,-0.019 39.856274,39.856274 0 0 0 0.0219,-0.019 l 91.65541,-76.98313 a 39.856274,39.856274 0 0 0 0.66214,-0.51513 39.856274,39.856274 0 0 0 0.62159,-0.56337 l 0.44213,-0.37252 c 2.9e-4,-0.013 0.007,-0.025 0.0101,-0.0379 a 39.856274,39.856274 0 0 0 3.81178,-55.18005 39.856274,39.856274 0 0 0 -1.6519,-1.8415 c 10e-4,-0.0431 -0.001,-0.087 0.006,-0.13007 l -75.3068,-89.65862 a 39.856274,39.856274 0 0 0 -0.55673,-0.715327 39.856274,39.856274 0 0 0 -1.03349,-1.177937 L 161.419,12.523834 c -0.0116,0.0127 -0.0152,0.01891 -0.0266,0.03097 A 39.856274,39.856274 0 0 0 107.58141,8.8413464 c -0.004,-0.00235 -0.009,-0.00511 -0.013,-0.00702 L 15.683415,86.009973 a 39.856274,39.856274 0 0 0 -1.232052,0.98941 z M 143.57583,-8.4980602 c -0.006,0.0068 -0.013,0.037005 -0.0146,0.049051 0.004,-2.6e-5 0.0101,-3.547e-4 0.0166,-0.00174 1.2e-4,-0.015028 0.003,-0.030462 3.7e-4,-0.044722 -5.1e-4,-0.00391 -0.001,-0.00492 -0.004,-0.00261 z M 260.23673,131.9378 c 10e-4,-1.9e-4 10e-4,4.9e-4 0.004,-9.7e-4 -6e-5,-6.9e-4 -8e-4,-0.002 -5.1e-4,-0.002 z m 2.56548,1.43952 10e-4,0.002 c 0.001,0.004 0.001,0.008 0.006,0.0125 10e-4,-0.004 0.003,-0.009 0.007,-0.0159 -0.004,0.001 -0.009,6.7e-4 -0.013,0.002 z m -18.8445,20.1004 c -0.0116,0.013 -0.0233,0.0262 -0.0359,0.0387 0.004,0.006 0.0101,0.0116 0.0146,0.0172 0.009,-0.0171 0.013,-0.0379 0.0227,-0.056 z" /><text
       xml:space="preserve"
       style="font-weight:bold;font-size:118.978px;font-family:'League Spartan';-inkscape-font-specification:'League Spartan Bold';text-align:center;text-anchor:middle;fill:#ffffff;stroke:#ff0000;stroke-width:0;stroke-linecap:round;stroke-linejoin:round;stroke-miterlimit:36.2;stroke-dasharray:none;fill-opacity:1"
       x="74.585541"
       y="158.11343"
       id="text236"><tspan
         sodipodi:role="line"
         id="tspan234"
         style="fill:#ffffff;stroke-width:0;stroke-dasharray:none;fill-opacity:1"
         x="74.585541"
         y="158.11343">Di</tspan></text><path
       id="text2460"
       style="font-weight:bold;font-size:101.545px;font-family:'League Spartan';-inkscape-font-specification:'League Spartan Bold';text-align:center;text-anchor:middle;fill:#f74b00;stroke:#ff0000;stroke-width:0;stroke-linecap:round;stroke-linejoin:round;stroke-miterlimit:36.2;stroke-dasharray:none;fill-opacity:1"
       d="m 130.8939,102.01081 a 8.3670405,7.9907547 89.999993 0 0 -3.34934,0.7745 c -0.001,-0.01 -0.004,-0.0176 -0.006,-0.0277 -0.18275,0.1031 -0.36759,0.21506 -0.55193,0.32451 a 8.3670405,7.9907547 89.999993 0 0 -0.1329,0.0783 c -2.12713,1.27865 -4.34342,2.98172 -6.41913,5.22447 -11.6826,12.62274 -11.32313,29.44437 1.7079,42.61213 12.98213,13.11833 29.18192,13.02888 40.86452,0.40613 1.50035,-1.62108 2.72165,-3.29137 3.72011,-4.93167 a 8.0391561,8.4749093 4.3028858e-6 0 0 1.56389,-5.01197 8.0391561,8.4749093 4.3028858e-6 0 0 -8.03906,-8.47492 8.0391561,8.4749093 4.3028858e-6 0 0 -7.3086,4.95528 c -0.37488,0.57253 -0.81222,1.14232 -1.32474,1.69607 -4.14277,4.47615 -11.94498,4.30127 -17.62767,-1.44104 -5.68279,-5.74242 -6.06179,-13.83515 -1.91902,-18.3113 0.83753,-0.90493 1.7213,-1.59098 2.5941,-2.11165 -0.004,-0.006 -0.007,-0.0127 -0.0116,-0.0189 a 8.3670405,7.9907547 89.999993 0 0 4.22968,-7.37525 8.3670405,7.9907547 89.999993 0 0 -7.99084,-8.36698 z m 38.70764,35.40554 c -0.0252,0.0212 -0.0502,0.0402 -0.0756,0.06 2.4e-4,0.0199 -2.7e-4,0.0397 -6.6e-4,0.0587 0.0177,-0.0206 0.0363,-0.04 0.0547,-0.06 0.007,-0.0225 0.0145,-0.0386 0.0214,-0.0587 z" /><text
       xml:space="preserve"
       style="font-weight:bold;font-size:96.0071px;font-family:'League Spartan';-inkscape-font-specification:'League Spartan Bold';text-align:center;text-anchor:middle;fill:#ffffff;stroke:#ff0000;stroke-width:0;stroke-linecap:round;stroke-linejoin:round;stroke-miterlimit:36.2;stroke-dasharray:none;fill-opacity:1"
       x="200.63432"
       y="157.32198"
       id="text2464"><tspan
         sodipodi:role="line"
         id="tspan2462"
         style="stroke-width:0;fill:#ffffff;fill-opacity:1"
         x="200.63432"
         y="157.32198">er</tspan></text><path
       id="path7846"
       style="fill:url(#linearGradient3650);fill-opacity:1;stroke:#000000;stroke-width:0;stroke-dasharray:none;stroke-opacity:1"
       inkscape:transform-center-x="-0.90711607"
       inkscape:transform-center-y="-126.0927"
       d="m 52.58328,111.89222 -6.92e-4,0.0338 h -0.0011 l -2.63053,5.16789 -3.969997,7.79937 1.038375,-0.004 3.432711,-6.7666 2.695305,-5.31292 1.545066,0.0323 2.67044,5.24224 1.955758,3.83931 1.46065,2.92784 -10e-4,0.037 0.0197,5.5e-4 0.0033,0.007 c 0.0029,-0.002 0.0059,-0.004 0.009,-0.005 0.0038,-0.002 0.0078,-4.3e-4 0.01165,-8.8e-4 l 0.02317,6.4e-4 c 0.0038,0.001 0.0077,0.002 0.01133,0.004 0.0012,0 0.0025,-3.3e-4 0.0037,0 0.0017,-0.001 0.0047,-0.002 0.0069,-0.003 l 0.04155,10e-4 c 6.2e-5,0 1.24e-4,3.3e-4 1.24e-4,3.7e-4 0.0011,0 0.0021,-2.9e-4 0.0032,-3.3e-4 l 2.570662,0.0718 9.44e-4,-0.0338 h 0.0011 l 2.666789,-5.14932 4.024701,-7.77122 -1.038373,-0.003 -3.48018,6.74235 -2.732561,5.29388 -1.538457,-0.0429 -0.445818,-0.87822 -2.19409,-4.38283 -3.391605,-6.77534 -0.06723,-1.9e-4 3.23e-4,-0.0142 -0.0197,-3.7e-4 -0.0034,-0.007 c -0.0029,0.002 -0.0058,0.004 -0.0089,0.005 -0.0038,0.002 -0.0077,4.4e-4 -0.01158,9.4e-4 l -0.02317,-4.4e-4 c -0.0038,-0.001 -0.0077,-0.002 -0.01139,-0.004 -0.0012,4e-5 -0.0025,6e-5 -0.0037,1.2e-4 -0.0017,0.001 -0.0047,0.002 -0.0069,0.003 l -0.04155,-8.9e-4 c -6.2e-5,-1.2e-4 -1.65e-4,-2.6e-4 -1.85e-4,-3.8e-4 -0.0011,7e-5 -0.0022,1.9e-4 -0.0033,2.6e-4 6.1e-5,2e-5 6.1e-5,2e-5 1.23e-4,7e-5 z" /><path
       id="path7846-3"
       style="fill:url(#linearGradient3652);fill-opacity:1;stroke:#000000;stroke-width:0;stroke-dasharray:none;stroke-opacity:1"
       inkscape:transform-center-x="1.0419948"
       inkscape:transform-center-y="-94.816034"
       d="m 53.928702,113.30989 -3.068174,5.84633 -3.068173,5.84629 0.796741,6.3e-4 2.65298,-5.07219 2.672549,-5.10952 2.62994,5.1053 2.619553,5.08526 0.772579,6.4e-4 -3.003998,-5.85136 z" /><path
       id="path7846-3-3"
       style="fill:url(#linearGradient8200);fill-opacity:1;stroke:#000000;stroke-width:0;stroke-dasharray:none;stroke-opacity:1"
       inkscape:transform-center-x="-0.7256579"
       inkscape:transform-center-y="94.816919"
       d="m 62.203333,123.65949 3.058429,-5.85144 3.058429,-5.85139 -0.796741,6.8e-4 -2.644526,5.07661 -2.664032,5.11396 -2.638443,-5.10091 -2.628021,-5.08089 -0.772579,6.4e-4 3.013743,5.84635 z" /></g></svg>
