<?xml version="1.0" encoding="UTF-8" standalone="no"?>
<!-- Created with Inkscape (http://www.inkscape.org/) -->

<svg
   width="250mm"
   height="250mm"
   viewBox="0 0 250 250"
   version="1.1"
   id="svg5"
   xml:space="preserve"
   inkscape:version="1.2.2 (b0a8486541, 2022-12-01)"
   sodipodi:docname="logo.svg"
   xmlns:inkscape="http://www.inkscape.org/namespaces/inkscape"
   xmlns:sodipodi="http://sodipodi.sourceforge.net/DTD/sodipodi-0.dtd"
   xmlns:xlink="http://www.w3.org/1999/xlink"
   xmlns="http://www.w3.org/2000/svg"
   xmlns:svg="http://www.w3.org/2000/svg"><sodipodi:namedview
     id="namedview7"
     pagecolor="#505050"
     bordercolor="#eeeeee"
     borderopacity="1"
     inkscape:showpageshadow="0"
     inkscape:pageopacity="0"
     inkscape:pagecheckerboard="0"
     inkscape:deskcolor="#505050"
     inkscape:document-units="mm"
     showgrid="false"
     inkscape:zoom="0.5"
     inkscape:cx="363"
     inkscape:cy="439"
     inkscape:window-width="1920"
     inkscape:window-height="1043"
     inkscape:window-x="0"
     inkscape:window-y="0"
     inkscape:window-maximized="1"
     inkscape:current-layer="layer1" /><defs
     id="defs2"><linearGradient
       inkscape:collect="always"
       id="linearGradient4221"><stop
         style="stop-color:#000000;stop-opacity:1"
         offset="0"
         id="stop4217" /><stop
         style="stop-color:#28170b;stop-opacity:1"
         offset="1"
         id="stop4219" /></linearGradient><linearGradient
       inkscape:collect="always"
       id="linearGradient4215"><stop
         style="stop-color:#000000;stop-opacity:1"
         offset="0"
         id="stop4211" /><stop
         style="stop-color:#28170b;stop-opacity:1"
         offset="1"
         id="stop4213" /></linearGradient><linearGradient
       inkscape:collect="always"
       id="linearGradient8222"><stop
         style="stop-color:#000000;stop-opacity:1"
         offset="0"
         id="stop8218" /><stop
         style="stop-color:#28170b;stop-opacity:1"
         offset="1"
         id="stop8220" /></linearGradient><linearGradient
       inkscape:collect="always"
       xlink:href="#linearGradient4215"
       id="linearGradient8200"
       x1="569.55701"
       y1="575.69153"
       x2="884.96222"
       y2="832.95288"
       gradientUnits="userSpaceOnUse" /><linearGradient
       inkscape:collect="always"
       xlink:href="#linearGradient8222"
       id="linearGradient3650"
       gradientUnits="userSpaceOnUse"
       x1="569.55701"
       y1="575.69153"
       x2="884.96222"
       y2="832.95288" /><linearGradient
       inkscape:collect="always"
       xlink:href="#linearGradient4221"
       id="linearGradient3652"
       gradientUnits="userSpaceOnUse"
       x1="569.55701"
       y1="575.69153"
       x2="884.96222"
       y2="832.95288" /></defs><g
     inkscape:label="Layer 1"
     inkscape:groupmode="layer"
     id="layer1"><text
       xml:space="preserve"
       style="font-weight:bold;font-size:3.175px;font-family:'League Spartan';-inkscape-font-specification:'League Spartan Bold';text-align:center;text-anchor:middle;fill:#000000;stroke:#ff0000;stroke-width:0;stroke-linecap:round;stroke-linejoin:round;stroke-miterlimit:36.2;stroke-dasharray:none"
       x="22.499735"
       y="44.035686"
       id="text1570"><tspan
         sodipodi:role="line"
         id="tspan1568"
         style="stroke-width:0"
         x="22.499735"
         y="44.035686" /></text><path
       id="rect2992"
       style="fill:#ffffff;stroke:#ff0000;stroke-width:0;stroke-linecap:round;stroke-linejoin:round;stroke-miterlimit:36.2;stroke-dasharray:none"
       d="m 14.451421,86.99903 a 39.856274,39.856274 0 0 0 -6.1929266,54.47291 c -0.00985,0.008 -0.015709,0.0136 -0.026552,0.0225 l 0.5979749,0.71198 a 39.856274,39.856274 0 0 0 0.7365931,0.94534 39.856274,39.856274 0 0 0 0.8043726,0.88838 L 86.531248,234.716 a 39.856274,39.856274 0 0 0 0.586947,0.75398 39.856274,39.856274 0 0 0 55.166655,5.65283 c 0.0116,0.009 0.0276,0.0188 0.0395,0.0265 l 0.92371,-0.77584 a 39.856274,39.856274 0 0 0 0.0233,-0.019 39.856274,39.856274 0 0 0 0.0219,-0.019 l 91.65541,-76.98313 a 39.856274,39.856274 0 0 0 0.66214,-0.51513 39.856274,39.856274 0 0 0 0.62159,-0.56337 l 0.44213,-0.37252 c 2.9e-4,-0.013 0.007,-0.025 0.0101,-0.0379 a 39.856274,39.856274 0 0 0 3.81178,-55.18005 39.856274,39.856274 0 0 0 -1.6519,-1.8415 c 10e-4,-0.0431 -0.001,-0.087 0.006,-0.13007 l -75.3068,-89.65862 a 39.856274,39.856274 0 0 0 -0.55673,-0.715327 39.856274,39.856274 0 0 0 -1.03349,-1.177937 L 161.419,12.523834 c -0.0116,0.0127 -0.0152,0.01891 -0.0266,0.03097 A 39.856274,39.856274 0 0 0 107.58141,8.8413464 c -0.004,-0.00235 -0.009,-0.00511 -0.013,-0.00702 L 15.683415,86.009973 a 39.856274,39.856274 0 0 0 -1.232052,0.98941 z M 143.57583,-8.4980602 c -0.006,0.0068 -0.013,0.037005 -0.0146,0.049051 0.004,-2.6e-5 0.0101,-3.547e-4 0.0166,-0.00174 1.2e-4,-0.015028 0.003,-0.030462 3.7e-4,-0.044722 -5.1e-4,-0.00391 -0.001,-0.00492 -0.004,-0.00261 z M 260.23673,131.9378 c 10e-4,-1.9e-4 10e-4,4.9e-4 0.004,-9.7e-4 -6e-5,-6.9e-4 -8e-4,-0.002 -5.1e-4,-0.002 z m 2.56548,1.43952 10e-4,0.002 c 0.001,0.004 0.001,0.008 0.006,0.0125 10e-4,-0.004 0.003,-0.009 0.007,-0.0159 -0.004,0.001 -0.009,6.7e-4 -0.013,0.002 z m -18.8445,20.1004 c -0.0116,0.013 -0.0233,0.0262 -0.0359,0.0387 0.004,0.006 0.0101,0.0116 0.0146,0.0172 0.009,-0.0171 0.013,-0.0379 0.0227,-0.056 z" /><text
       xml:space="preserve"
       style="font-weight:bold;font-size:118.978px;font-family:'League Spartan';-inkscape-font-specification:'League Spartan Bold';text-align:center;text-anchor:middle;fill:#000000;stroke:#ff0000;stroke-width:0;stroke-linecap:round;stroke-linejoin:round;stroke-miterlimit:36.2;stroke-dasharray:none"
       x="74.585541"
       y="158.11343"
       id="text236"><tspan
         sodipodi:role="line"
         id="tspan234"
         style="fill:#000000;stroke-width:0;stroke-dasharray:none"
         x="74.585541"
         y="158.11343">Di</tspan></text><path
       id="text2460"
       style="font-weight:bold;font-size:101.545px;font-family:'League Spartan';-inkscape-font-specification:'League Spartan Bold';text-align:center;text-anchor:middle;fill:#ff0000;stroke:#ff0000;stroke-width:0;stroke-linecap:round;stroke-linejoin:round;stroke-miterlimit:36.2;stroke-dasharray:none"
       d="m 130.8939,102.01081 a 8.3670405,7.9907547 89.999993 0 0 -3.34934,0.7745 c -0.001,-0.01 -0.004,-0.0176 -0.006,-0.0277 -0.18275,0.1031 -0.36759,0.21506 -0.55193,0.32451 a 8.3670405,7.9907547 89.999993 0 0 -0.1329,0.0783 c -2.12713,1.27865 -4.34342,2.98172 -6.41913,5.22447 -11.6826,12.62274 -11.32313,29.44437 1.7079,42.61213 12.98213,13.11833 29.18192,13.02888 40.86452,0.40613 1.50035,-1.62108 2.72165,-3.29137 3.72011,-4.93167 a 8.0391561,8.4749093 4.3028858e-6 0 0 1.56389,-5.01197 8.0391561,8.4749093 4.3028858e-6 0 0 -8.03906,-8.47492 8.0391561,8.4749093 4.3028858e-6 0 0 -7.3086,4.95528 c -0.37488,0.57253 -0.81222,1.14232 -1.32474,1.69607 -4.14277,4.47615 -11.94498,4.30127 -17.62767,-1.44104 -5.68279,-5.74242 -6.06179,-13.83515 -1.91902,-18.3113 0.83753,-0.90493 1.7213,-1.59098 2.5941,-2.11165 -0.004,-0.006 -0.007,-0.0127 -0.0116,-0.0189 a 8.3670405,7.9907547 89.999993 0 0 4.22968,-7.37525 8.3670405,7.9907547 89.999993 0 0 -7.99084,-8.36698 z m 38.70764,35.40554 c -0.0252,0.0212 -0.0502,0.0402 -0.0756,0.06 2.4e-4,0.0199 -2.7e-4,0.0397 -6.6e-4,0.0587 0.0177,-0.0206 0.0363,-0.04 0.0547,-0.06 0.007,-0.0225 0.0145,-0.0386 0.0214,-0.0587 z" /><text
       xml:space="preserve"
       style="font-weight:bold;font-size:96.0071px;font-family:'League Spartan';-inkscape-font-specification:'League Spartan Bold';text-align:center;text-anchor:middle;fill:#000000;stroke:#ff0000;stroke-width:0;stroke-linecap:round;stroke-linejoin:round;stroke-miterlimit:36.2;stroke-dasharray:none"
       x="200.63432"
       y="157.32198"
       id="text2464"><tspan
         sodipodi:role="line"
         id="tspan2462"
         style="stroke-width:0"
         x="200.63432"
         y="157.32198">er</tspan></text><g
       id="g3462"
       transform="matrix(0.02053546,0,0,0.02053546,42.449612,103.64003)"><path
         id="path7846"
         style="fill:url(#linearGradient3650);fill-opacity:1;stroke:#000000;stroke-width:0;stroke-dasharray:none;stroke-opacity:1"
         inkscape:transform-center-x="-0.90711607"
         inkscape:transform-center-y="-126.0927"
         d="m 493.47167,401.85077 -0.0337,1.64615 h -0.0521 l -128.09694,251.65689 -193.32401,379.79969 50.56497,-0.1991 167.16019,-329.50772 131.25126,-258.71972 75.23895,1.57258 130.04041,255.27721 95.2381,186.96011 71.12815,142.57504 -0.049,1.8026 0.95948,0.027 0.16248,0.3189 c 0.14188,-0.093 0.28491,-0.1833 0.43837,-0.2453 0.18636,-0.075 0.37962,-0.021 0.56709,-0.043 l 1.1281,0.031 c 0.18646,0.06 0.373,0.1113 0.5518,0.1994 0.0601,0 0.12085,-0.016 0.18085,0 0.0851,-0.064 0.22937,-0.1085 0.33414,-0.1656 l 2.0232,0.055 c 0.003,0 0.006,0.016 0.006,0.018 0.052,0 0.10438,-0.014 0.15633,-0.016 l 125.18161,3.4947 0.046,-1.6463 h 0.052 L 1154.188,785.98982 1350.1759,407.56033 1299.611,407.40093 1130.1393,735.72833 997.07377,993.52036 922.15669,991.4296 900.44702,948.66327 793.60305,735.2359 628.44459,405.30217 l -3.27391,-0.009 0.0157,-0.69279 -0.9595,-0.0184 -0.16552,-0.32188 c -0.14126,0.0932 -0.28231,0.1853 -0.43531,0.2483 -0.18586,0.0764 -0.3767,0.0217 -0.56404,0.046 l -1.12809,-0.0215 c -0.18687,-0.0573 -0.37548,-0.10893 -0.55486,-0.1962 -0.0603,0.002 -0.12054,0.003 -0.18085,0.006 -0.0846,0.0659 -0.22977,0.11144 -0.33414,0.1686 l -2.02322,-0.043 c -0.003,-0.006 -0.008,-0.0126 -0.009,-0.0184 -0.0551,0.003 -0.10736,0.009 -0.16246,0.0126 0.003,0.001 0.003,0.001 0.006,0.003 z" /><path
         id="path7846-3"
         style="fill:url(#linearGradient3652);fill-opacity:1;stroke:#000000;stroke-width:0;stroke-dasharray:none;stroke-opacity:1"
         inkscape:transform-center-x="1.0419948"
         inkscape:transform-center-y="-94.816034"
         d="m 558.9887,470.88584 -149.40858,284.69457 -149.40856,284.69219 38.7983,0.031 129.19022,-246.99701 130.1431,-248.81448 128.06827,248.60914 127.5624,247.63325 37.6217,0.031 L 705.2721,755.82606 Z" /><path
         id="path7846-3-3"
         style="fill:url(#linearGradient8200);fill-opacity:1;stroke:#000000;stroke-width:0;stroke-dasharray:none;stroke-opacity:1"
         inkscape:transform-center-x="-0.7256579"
         inkscape:transform-center-y="94.816919"
         d="m 961.93224,974.87255 148.93406,-284.94327 148.934,-284.94064 -38.7983,0.0333 L 1092.2235,652.23368 962.49513,901.26465 834.01284,652.86926 706.03805,405.44903 l -37.62172,0.0312 146.75799,284.69517 z" /></g></g></svg>
